<svg id="Capa_1" enable-background="new 0 0 512 512" height="512" viewBox="0 0 512 512" width="512" xmlns="http://www.w3.org/2000/svg"><g><path d="m218.742 472.042h-187.875c-8.749 0-15.867-7.118-15.867-15.867v-400.35c0-8.749 7.118-15.867 15.867-15.867h98.931c4.142 0 7.5-3.358 7.5-7.5s-3.358-7.5-7.5-7.5h-98.931c-17.02 0-30.867 13.847-30.867 30.867v400.349c0 17.02 13.847 30.867 30.867 30.867h187.874c4.142 0 7.5-3.358 7.5-7.5.001-4.141-3.357-7.499-7.499-7.499z"/><path d="m481.133 24.958h-321.335c-4.142 0-7.5 3.358-7.5 7.5s3.358 7.5 7.5 7.5h321.335c8.749 0 15.867 7.118 15.867 15.867v400.349c0 8.749-7.118 15.867-15.867 15.867h-232.391c-4.142 0-7.5 3.358-7.5 7.5s3.358 7.5 7.5 7.5h232.392c17.021 0 30.867-13.847 30.867-30.867v-400.349c-.001-17.02-13.847-30.867-30.868-30.867z"/><path d="m200.35 174.449c-10.752-15.333-28.927-23.066-47.429-20.182-12.679 1.976-23.889 8.728-31.565 19.01l-22.654 30.349c-35.812 47.974-55.534 107.363-55.534 167.229 0 16.323 5.718 32.25 16.101 44.846 13.442 16.307 33.271 25.659 54.403 25.659 36.182 0 69.891-19.469 87.97-50.807l.818-1.416c9.138-15.84 13.968-33.879 13.968-52.166v-29.831l32.605-32.605c1.593-1.594 3.712-2.472 5.967-2.472 2.254 0 4.372.877 5.966 2.472l32.605 32.605v29.83c0 18.287 4.83 36.326 13.969 52.165l.816 1.415c18.081 31.34 51.79 50.809 87.972 50.809 21.133 0 40.962-9.353 54.402-25.659 10.383-12.596 16.102-28.522 16.102-44.846 0-59.865-19.723-119.255-55.534-167.229l-22.654-30.349c-7.675-10.283-18.886-17.034-31.564-19.01-18.503-2.883-36.677 4.849-47.43 20.182-10.518 14.999-16.078 32.61-16.078 50.928v15.467l-9.251-9.251c-1.528-1.528-2.404-3.56-2.468-5.72l-3.964-135.252c-.373-12.758-10.664-22.753-23.429-22.753h-.722c-12.712 0-23.225 10.341-23.436 23.05l-2.235 134.929c-.037 2.202-.914 4.271-2.471 5.828l-9.168 9.168v-15.467c0-18.317-5.559-35.928-16.078-50.926zm-10.882 207.189-.818 1.416c-4.947 8.575-11.273 16.101-18.594 22.376l-1.645-1.315c-5.474-4.378-9.072-10.604-10.13-17.533l-1.498-9.801c-.626-4.094-4.453-6.907-8.547-6.281-4.095.626-6.906 4.453-6.281 8.547l1.498 9.801c1.521 9.954 6.451 18.965 13.953 25.6-13.071 7.657-28.131 11.911-43.734 11.911-16.636 0-32.247-7.362-42.829-20.2-8.174-9.916-12.675-22.454-12.675-35.305 0-22.039 2.837-44.007 8.284-65.301l20.705 12.337c5.021 2.992 8.141 8.482 8.141 14.327v7.005c0 4.142 3.358 7.5 7.5 7.5s7.5-3.358 7.5-7.5v-7.005c0-8.508-3.488-16.61-9.405-22.493l16.608-17.686c2.835-3.02 2.686-7.766-.333-10.602-3.019-2.835-7.766-2.686-10.602.333l-18.2 19.381-17.637-10.509c8.906-27.961 22.389-54.462 39.993-78.044l22.654-30.348c5.314-7.12 13.076-11.794 21.854-13.162 12.811-1.999 25.394 3.357 32.838 13.973 8.74 12.462 13.359 27.095 13.359 42.316v30.468l-30.123 30.123c-4.427 4.427-6.865 10.313-6.865 16.574s2.438 12.147 6.865 16.573c4.427 4.427 10.313 6.865 16.574 6.865 4.926 0 9.616-1.515 13.549-4.315v15.304c.001 15.662-4.135 31.109-11.959 44.67zm119.104-156.261c0-15.221 4.619-29.853 13.359-42.315 7.445-10.616 20.034-15.967 32.838-13.973 8.779 1.368 16.541 6.042 21.855 13.162l22.654 30.349c17.217 23.065 30.495 48.921 39.402 76.204l-17.368 10.349-18.199-19.38c-2.836-3.019-7.582-3.17-10.602-.334-3.02 2.835-3.169 7.582-.334 10.601l16.608 17.686c-5.917 5.884-9.405 13.986-9.405 22.493v7.005c0 4.142 3.357 7.5 7.5 7.5 4.142 0 7.5-3.358 7.5-7.5v-7.005c0-5.845 3.119-11.335 8.141-14.327l20.539-12.237c5.769 21.885 8.772 44.506 8.772 67.201 0 12.851-4.502 25.389-12.676 35.305-10.581 12.837-26.191 20.2-42.829 20.2-16.232 0-31.878-4.603-45.307-12.854 8.203-6.718 13.601-16.162 15.205-26.658l1.498-9.801c.626-4.095-2.186-7.921-6.281-8.547-4.086-.625-7.921 2.186-8.547 6.281l-1.498 9.801c-1.06 6.928-4.657 13.155-10.131 17.533l-2.67 2.135c-6.751-6.032-12.606-13.15-17.247-21.194l-.816-1.416c-7.825-13.564-11.962-29.011-11.962-44.67v-15.333c9.147 6.495 21.932 5.669 30.123-2.521 4.428-4.427 6.865-10.313 6.865-16.574s-2.438-12.147-6.864-16.574l-30.124-30.124v-30.468zm-72.369 16.906c4.324-4.323 6.761-10.071 6.863-16.186l2.235-134.93c.076-4.576 3.861-8.299 8.438-8.299h.722c4.596 0 8.301 3.598 8.434 8.192l3.964 135.252c.176 6.001 2.61 11.643 6.855 15.887l54.375 54.375c1.595 1.594 2.472 3.713 2.472 5.967s-.877 4.373-2.472 5.967c-3.289 3.29-8.645 3.29-11.934 0l-44.581-44.58c-4.427-4.427-10.313-6.866-16.573-6.866-6.261 0-12.147 2.438-16.574 6.865l-44.582 44.581c-1.593 1.594-3.712 2.472-5.966 2.472s-4.373-.878-5.967-2.472c-1.594-1.593-2.472-3.712-2.472-5.966s.878-4.373 2.472-5.967z"/><path d="m123.527 90.834c4.142 0 7.5-3.358 7.5-7.5s-3.358-7.5-7.5-7.5h-64.859c-4.142 0-7.5 3.358-7.5 7.5s3.358 7.5 7.5 7.5z"/><path d="m374.658 90.834c4.143 0 7.5-3.358 7.5-7.5s-3.357-7.5-7.5-7.5h-20.659c-4.143 0-7.5 3.358-7.5 7.5s3.357 7.5 7.5 7.5z"/><path d="m449.056 90.834c4.142 0 7.5-3.358 7.5-7.5s-3.358-7.5-7.5-7.5h-42.058c-4.143 0-7.5 3.358-7.5 7.5s3.357 7.5 7.5 7.5z"/></g></svg>